<svg xmlns="http://www.w3.org/2000/svg" xmlns:xlink="http://www.w3.org/1999/xlink" width="1655" zoomAndPan="magnify" viewBox="0 0 1241.25 442.499987" height="590" preserveAspectRatio="xMidYMid meet" version="1.0"><defs><g/><clipPath id="id1"><path d="M 0.324219 0 L 1240.175781 0 L 1240.175781 442 L 0.324219 442 Z M 0.324219 0 " clip-rule="nonzero"/></clipPath><clipPath id="id2"><path d="M 46.808594 41.148438 L 250.578125 41.148438 L 250.578125 397.742188 L 46.808594 397.742188 Z M 46.808594 41.148438 " clip-rule="nonzero"/></clipPath><clipPath id="id3"><path d="M 106 173.378906 L 201.890625 173.378906 L 201.890625 266 L 106 266 Z M 106 173.378906 " clip-rule="nonzero"/></clipPath></defs><g clip-path="url(#id1)"><path fill="rgb(100%, 100%, 100%)" d="M 0.324219 0 L 1240.925781 0 L 1240.925781 449.492188 L 0.324219 449.492188 Z M 0.324219 0 " fill-opacity="1" fill-rule="nonzero"/><path fill="rgb(9.408569%, 82.348633%, 43.139648%)" d="M 0.324219 0 L 1240.175781 0 L 1240.175781 442 L 0.324219 442 Z M 0.324219 0 " fill-opacity="1" fill-rule="nonzero"/><path fill="rgb(100%, 100%, 100%)" d="M 0.324219 0 L 1240.175781 0 L 1240.175781 442 L 0.324219 442 Z M 0.324219 0 " fill-opacity="1" fill-rule="nonzero"/><path fill="rgb(9.408569%, 82.348633%, 43.139648%)" d="M 0.324219 0 L 1240.175781 0 L 1240.175781 442 L 0.324219 442 Z M 0.324219 0 " fill-opacity="1" fill-rule="nonzero"/></g><g clip-path="url(#id2)"><path fill="rgb(9.408569%, 25.099182%, 48.629761%)" d="M 215.941406 41.519531 L 80.867188 41.519531 C 61.816406 41.519531 46.808594 57.167969 46.808594 75.714844 L 46.808594 363.175781 C 46.808594 382.300781 62.394531 397.371094 80.867188 397.371094 L 215.941406 397.371094 C 234.992188 397.371094 250 381.722656 250 363.175781 L 250 75.714844 C 250.578125 56.589844 234.992188 41.519531 215.941406 41.519531 Z M 241.339844 359.699219 C 241.339844 375.347656 229.21875 388.679688 213.632812 388.679688 L 83.175781 388.679688 C 68.164062 388.679688 55.464844 375.925781 55.464844 359.699219 L 55.464844 79.769531 C 55.464844 64.121094 67.589844 50.792969 83.175781 50.792969 L 118.964844 50.792969 L 118.964844 51.953125 C 118.964844 56.007812 121.851562 58.90625 125.3125 58.90625 L 171.492188 58.90625 C 174.957031 58.90625 177.84375 56.007812 177.84375 51.953125 L 177.84375 50.792969 L 213.632812 50.792969 C 228.640625 50.792969 241.339844 63.542969 241.339844 79.769531 Z M 241.339844 359.699219 " fill-opacity="1" fill-rule="nonzero"/></g><path fill="rgb(9.408569%, 25.099182%, 48.629761%)" d="M 148.957031 154.882812 C 113.375 154.882812 84.53125 183.726562 84.53125 219.308594 C 84.53125 254.890625 113.375 283.738281 148.957031 283.738281 C 184.539062 283.738281 213.386719 254.890625 213.386719 219.308594 C 213.386719 183.726562 184.539062 154.882812 148.957031 154.882812 " fill-opacity="1" fill-rule="nonzero"/><path fill="rgb(9.408569%, 82.348633%, 43.139648%)" d="M 186.71875 202.644531 L 163.855469 182.96875 L 153.945312 174.4375 L 144.03125 182.96875 L 131.863281 193.4375 L 131.863281 187.890625 L 133.09375 187.890625 L 133.09375 183.054688 L 120.917969 183.054688 L 120.917969 187.890625 L 122.144531 187.890625 L 122.144531 201.800781 L 121.167969 202.644531 L 107.074219 214.769531 L 112.339844 219.296875 L 114.515625 221.171875 L 121.167969 215.449219 L 153.945312 187.246094 L 178.035156 207.976562 C 180.097656 241.75 165.367188 258.890625 121.167969 264.46875 C 171.75 266.277344 187.695312 248.515625 188.570312 217.042969 L 193.371094 221.171875 L 195.546875 219.296875 L 200.808594 214.769531 L 186.71875 202.644531 " fill-opacity="1" fill-rule="nonzero"/><g clip-path="url(#id3)"><path fill="rgb(9.408569%, 82.348633%, 43.139648%)" d="M 153.945312 186.261719 C 154.175781 186.261719 154.40625 186.34375 154.59375 186.503906 L 178.683594 207.234375 C 178.886719 207.40625 179.007812 207.65625 179.027344 207.917969 C 180.117188 225.8125 176.503906 238.382812 167.660156 247.476562 C 160.222656 255.128906 149.109375 260.328125 133.164062 263.535156 C 170.363281 262.375 186.710938 248.265625 187.582031 217.015625 C 187.589844 216.636719 187.820312 216.296875 188.171875 216.144531 C 188.523438 215.988281 188.929688 216.050781 189.21875 216.300781 L 193.371094 219.871094 L 199.296875 214.769531 L 153.945312 175.738281 L 132.515625 194.179688 C 132.21875 194.433594 131.804688 194.492188 131.453125 194.332031 C 131.101562 194.171875 130.875 193.824219 130.875 193.4375 L 130.875 187.890625 C 130.875 187.351562 131.316406 186.910156 131.863281 186.910156 L 132.101562 186.910156 L 132.101562 184.035156 L 121.90625 184.035156 L 121.90625 186.910156 L 122.144531 186.910156 C 122.691406 186.910156 123.132812 187.351562 123.132812 187.890625 L 123.132812 201.800781 C 123.132812 202.085938 123.011719 202.359375 122.792969 202.542969 L 108.589844 214.769531 L 114.515625 219.871094 L 153.292969 186.503906 C 153.480469 186.34375 153.710938 186.261719 153.945312 186.261719 Z M 128 265.578125 C 125.789062 265.578125 123.480469 265.535156 121.132812 265.453125 C 120.617188 265.433594 120.199219 265.023438 120.179688 264.515625 C 120.15625 264.003906 120.53125 263.558594 121.042969 263.496094 C 143.046875 260.71875 157.40625 255.195312 166.234375 246.113281 C 174.601562 237.511719 178.046875 225.535156 177.070312 208.449219 L 153.945312 188.546875 L 115.164062 221.914062 C 114.792969 222.234375 114.242188 222.234375 113.867188 221.914062 L 106.425781 215.511719 C 106.210938 215.324219 106.085938 215.054688 106.085938 214.769531 C 106.085938 214.484375 106.210938 214.214844 106.425781 214.027344 L 121.152344 201.351562 L 121.152344 188.875 L 120.917969 188.875 C 120.371094 188.875 119.925781 188.4375 119.925781 187.890625 L 119.925781 183.050781 C 119.925781 182.507812 120.371094 182.070312 120.917969 182.070312 L 133.09375 182.070312 C 133.640625 182.070312 134.082031 182.507812 134.082031 183.050781 L 134.082031 187.890625 C 134.082031 188.4375 133.640625 188.875 133.09375 188.875 L 132.855469 188.875 L 132.855469 191.285156 L 153.292969 173.695312 C 153.667969 173.375 154.21875 173.375 154.589844 173.695312 L 201.460938 214.027344 C 201.675781 214.214844 201.800781 214.484375 201.800781 214.769531 C 201.800781 215.054688 201.675781 215.324219 201.460938 215.511719 L 194.019531 221.914062 C 193.648438 222.234375 193.09375 222.234375 192.71875 221.914062 L 189.480469 219.128906 C 189.132812 226.199219 188 232.214844 186.042969 237.472656 C 183.71875 243.707031 180.296875 248.722656 175.574219 252.8125 C 165.667969 261.402344 150.105469 265.578125 128 265.578125 " fill-opacity="1" fill-rule="nonzero"/></g><path fill="rgb(9.408569%, 82.348633%, 43.139648%)" d="M 124.566406 218.667969 L 124.566406 257.570312 L 129.953125 256.714844 L 129.953125 214.753906 L 124.566406 218.667969 " fill-opacity="1" fill-rule="nonzero"/><path fill="rgb(9.408569%, 82.348633%, 43.139648%)" d="M 125.558594 219.164062 L 125.558594 256.417969 L 128.960938 255.878906 L 128.960938 216.691406 Z M 124.566406 258.554688 C 124.335938 258.554688 124.105469 258.472656 123.925781 258.316406 C 123.703125 258.132812 123.578125 257.859375 123.578125 257.570312 L 123.578125 218.667969 C 123.578125 218.355469 123.726562 218.058594 123.980469 217.875 L 129.367188 213.960938 C 129.667969 213.742188 130.066406 213.710938 130.398438 213.878906 C 130.730469 214.046875 130.941406 214.382812 130.941406 214.753906 L 130.941406 256.714844 C 130.941406 257.199219 130.589844 257.609375 130.109375 257.6875 L 124.722656 258.539062 C 124.671875 258.546875 124.621094 258.554688 124.566406 258.554688 " fill-opacity="1" fill-rule="nonzero"/><path fill="rgb(9.408569%, 25.099182%, 48.629761%)" d="M 116.253906 223.324219 L 132.230469 209.785156 L 141.917969 221.214844 L 125.941406 234.753906 L 116.253906 223.324219 " fill-opacity="1" fill-rule="nonzero"/><path fill="rgb(9.408569%, 25.099182%, 48.629761%)" d="M 119.964844 260.628906 L 118.984375 221.785156 L 133.960938 221.40625 L 134.941406 260.253906 L 119.964844 260.628906 " fill-opacity="1" fill-rule="nonzero"/><g fill="rgb(100%, 100%, 100%)" fill-opacity="1"><g transform="translate(283.933732, 225.642129)"><g><path d="M 31.734375 -85.625 L 31.734375 -63.015625 L 72.125 -63.015625 L 72.125 -44.640625 L 31.734375 -44.640625 L 31.734375 -20.65625 L 79.703125 -20.65625 L 79.703125 0 L 7.890625 0 L 7.890625 -106.28125 L 79.703125 -106.28125 L 79.703125 -85.625 Z M 31.734375 -85.625 "/></g></g></g><g fill="rgb(100%, 100%, 100%)" fill-opacity="1"><g transform="translate(377.911132, 225.642129)"><g><path d="M 35.984375 1.359375 C 26.066406 1.359375 18.398438 -2.40625 12.984375 -9.9375 C 7.566406 -17.476562 4.859375 -27.578125 4.859375 -40.234375 C 4.859375 -52.984375 7.640625 -63.128906 13.203125 -70.671875 C 18.773438 -78.210938 26.46875 -81.984375 36.28125 -81.984375 C 43.0625 -81.984375 48.273438 -80.488281 51.921875 -77.5 C 55.566406 -74.519531 58.097656 -71.507812 59.515625 -68.46875 L 60.734375 -68.46875 L 60.734375 -80.3125 L 84.5625 -80.3125 L 84.5625 0 L 60.734375 0 L 60.734375 -12.90625 L 59.515625 -12.90625 C 57.992188 -9.664062 55.382812 -6.476562 51.6875 -3.34375 C 48 -0.207031 42.765625 1.359375 35.984375 1.359375 Z M 44.9375 -17.609375 C 50.300781 -17.609375 54.300781 -19.859375 56.9375 -24.359375 C 59.570312 -28.867188 60.890625 -34.210938 60.890625 -40.390625 C 60.890625 -46.460938 59.570312 -51.75 56.9375 -56.25 C 54.300781 -60.757812 50.300781 -63.015625 44.9375 -63.015625 C 39.375 -63.015625 35.300781 -60.8125 32.71875 -56.40625 C 30.132812 -52 28.84375 -46.707031 28.84375 -40.53125 C 28.84375 -34.257812 30.132812 -28.867188 32.71875 -24.359375 C 35.300781 -19.859375 39.375 -17.609375 44.9375 -17.609375 Z M 44.9375 -17.609375 "/></g></g></g><g fill="rgb(100%, 100%, 100%)" fill-opacity="1"><g transform="translate(479.479563, 225.642129)"><g><path d="M 38.265625 1.359375 C 31.484375 1.359375 25.609375 0.0976562 20.640625 -2.421875 C 15.679688 -4.953125 11.910156 -8.265625 9.328125 -12.359375 C 6.753906 -16.460938 5.46875 -20.796875 5.46875 -25.359375 L 5.46875 -26.421875 L 28.390625 -26.421875 L 28.390625 -25.5 C 28.390625 -23.175781 29.300781 -21.128906 31.125 -19.359375 C 32.945312 -17.585938 35.53125 -16.703125 38.875 -16.703125 C 41.707031 -16.703125 43.984375 -17.382812 45.703125 -18.75 C 47.421875 -20.113281 48.28125 -21.910156 48.28125 -24.140625 C 48.28125 -26.160156 47.46875 -27.78125 45.84375 -29 C 44.226562 -30.21875 42.207031 -31.023438 39.78125 -31.421875 L 31.125 -33.25 C 25.25 -34.257812 19.832031 -36.613281 14.875 -40.3125 C 9.914062 -44.007812 7.4375 -49.703125 7.4375 -57.390625 C 7.4375 -65.179688 10.242188 -71.226562 15.859375 -75.53125 C 21.484375 -79.832031 28.695312 -81.984375 37.5 -81.984375 C 44.082031 -81.984375 49.75 -80.816406 54.5 -78.484375 C 59.257812 -76.160156 62.851562 -73.097656 65.28125 -69.296875 C 67.71875 -65.503906 68.9375 -61.484375 68.9375 -57.234375 L 68.9375 -56.484375 L 46 -56.484375 L 46 -56.9375 C 46 -58.957031 45.238281 -60.828125 43.71875 -62.546875 C 42.207031 -64.273438 39.882812 -65.140625 36.75 -65.140625 C 34.113281 -65.140625 32.007812 -64.503906 30.4375 -63.234375 C 28.875 -61.972656 28.09375 -60.226562 28.09375 -58 C 28.09375 -54.050781 31.378906 -51.46875 37.953125 -50.25 L 47.375 -48.125 C 53.75 -46.707031 59.132812 -44.125 63.53125 -40.375 C 67.9375 -36.632812 70.140625 -31.320312 70.140625 -24.4375 C 70.140625 -19.175781 68.75 -14.597656 65.96875 -10.703125 C 63.1875 -6.804688 59.363281 -3.820312 54.5 -1.75 C 49.644531 0.320312 44.234375 1.359375 38.265625 1.359375 Z M 38.265625 1.359375 "/></g></g></g><g fill="rgb(100%, 100%, 100%)" fill-opacity="1"><g transform="translate(562.37405, 225.642129)"><g><path d="M 48.734375 11.53125 C 47.421875 15.175781 45.925781 18.515625 44.25 21.546875 C 42.582031 24.585938 39.570312 27.578125 35.21875 30.515625 C 30.875 33.453125 25.15625 34.921875 18.0625 34.921875 C 15.132812 34.921875 12.582031 34.664062 10.40625 34.15625 C 8.226562 33.65625 6.832031 33.351562 6.21875 33.25 L 6.21875 16.859375 C 8.65625 17.253906 10.785156 17.453125 12.609375 17.453125 C 17.359375 17.453125 20.847656 16.390625 23.078125 14.265625 C 25.304688 12.140625 27.28125 8.851562 29 4.40625 L 31.28125 -1.21875 L 2.734375 -80.3125 L 26.5625 -80.3125 L 42.359375 -27.171875 L 43.265625 -27.171875 L 59.515625 -80.3125 L 83.359375 -80.3125 Z M 48.734375 11.53125 "/></g></g></g><g fill="rgb(100%, 100%, 100%)" fill-opacity="1"><g transform="translate(653.466861, 225.642129)"><g><path d="M 95.34375 -106.28125 L 95.34375 0 L 71.515625 0 L 71.515625 -44.03125 L 31.578125 -44.03125 L 31.578125 0 L 7.890625 0 L 7.890625 -106.28125 L 31.578125 -106.28125 L 31.578125 -62.546875 L 71.515625 -62.546875 L 71.515625 -106.28125 Z M 95.34375 -106.28125 "/></g></g></g><g fill="rgb(100%, 100%, 100%)" fill-opacity="1"><g transform="translate(764.75179, 225.642129)"><g><path d="M 44.328125 1.359375 C 35.828125 1.359375 28.664062 -0.507812 22.84375 -4.25 C 17.03125 -8 12.707031 -13.007812 9.875 -19.28125 C 7.039062 -25.5625 5.625 -32.546875 5.625 -40.234375 C 5.625 -47.828125 7.039062 -54.785156 9.875 -61.109375 C 12.707031 -67.429688 17.03125 -72.488281 22.84375 -76.28125 C 28.664062 -80.082031 35.828125 -81.984375 44.328125 -81.984375 C 52.835938 -81.984375 60 -80.109375 65.8125 -76.359375 C 71.632812 -72.617188 75.960938 -67.582031 78.796875 -61.25 C 81.628906 -54.925781 83.046875 -47.972656 83.046875 -40.390625 C 83.046875 -32.796875 81.628906 -25.832031 78.796875 -19.5 C 75.960938 -13.175781 71.632812 -8.117188 65.8125 -4.328125 C 60 -0.535156 52.835938 1.359375 44.328125 1.359375 Z M 44.328125 -17.609375 C 49.597656 -17.609375 53.492188 -19.785156 56.015625 -24.140625 C 58.546875 -28.492188 59.8125 -33.957031 59.8125 -40.53125 C 59.8125 -47.113281 58.546875 -52.503906 56.015625 -56.703125 C 53.492188 -60.910156 49.597656 -63.015625 44.328125 -63.015625 C 39.066406 -63.015625 35.171875 -60.882812 32.640625 -56.625 C 30.109375 -52.375 28.84375 -47.007812 28.84375 -40.53125 C 28.84375 -33.957031 30.132812 -28.492188 32.71875 -24.140625 C 35.300781 -19.785156 39.171875 -17.609375 44.328125 -17.609375 Z M 44.328125 -17.609375 "/></g></g></g><g fill="rgb(100%, 100%, 100%)" fill-opacity="1"><g transform="translate(861.461949, 225.642129)"><g><path d="M 81.828125 0 L 58 0 L 58 -12 L 56.9375 -12 C 55.21875 -8.25 52.484375 -5.054688 48.734375 -2.421875 C 44.992188 0.203125 40.441406 1.515625 35.078125 1.515625 C 24.648438 1.515625 17.507812 -1.820312 13.65625 -8.5 C 9.8125 -15.175781 7.890625 -22.617188 7.890625 -30.828125 L 7.890625 -80.3125 L 31.421875 -80.3125 L 31.421875 -34.765625 C 31.421875 -29.703125 32.484375 -25.628906 34.609375 -22.546875 C 36.742188 -19.460938 40.035156 -17.921875 44.484375 -17.921875 C 49.140625 -17.921875 52.554688 -19.515625 54.734375 -22.703125 C 56.910156 -25.890625 58 -29.910156 58 -34.765625 L 58 -80.3125 L 81.828125 -80.3125 Z M 81.828125 0 "/></g></g></g><g fill="rgb(100%, 100%, 100%)" fill-opacity="1"><g transform="translate(958.779423, 225.642129)"><g><path d="M 38.265625 1.359375 C 31.484375 1.359375 25.609375 0.0976562 20.640625 -2.421875 C 15.679688 -4.953125 11.910156 -8.265625 9.328125 -12.359375 C 6.753906 -16.460938 5.46875 -20.796875 5.46875 -25.359375 L 5.46875 -26.421875 L 28.390625 -26.421875 L 28.390625 -25.5 C 28.390625 -23.175781 29.300781 -21.128906 31.125 -19.359375 C 32.945312 -17.585938 35.53125 -16.703125 38.875 -16.703125 C 41.707031 -16.703125 43.984375 -17.382812 45.703125 -18.75 C 47.421875 -20.113281 48.28125 -21.910156 48.28125 -24.140625 C 48.28125 -26.160156 47.46875 -27.78125 45.84375 -29 C 44.226562 -30.21875 42.207031 -31.023438 39.78125 -31.421875 L 31.125 -33.25 C 25.25 -34.257812 19.832031 -36.613281 14.875 -40.3125 C 9.914062 -44.007812 7.4375 -49.703125 7.4375 -57.390625 C 7.4375 -65.179688 10.242188 -71.226562 15.859375 -75.53125 C 21.484375 -79.832031 28.695312 -81.984375 37.5 -81.984375 C 44.082031 -81.984375 49.75 -80.816406 54.5 -78.484375 C 59.257812 -76.160156 62.851562 -73.097656 65.28125 -69.296875 C 67.71875 -65.503906 68.9375 -61.484375 68.9375 -57.234375 L 68.9375 -56.484375 L 46 -56.484375 L 46 -56.9375 C 46 -58.957031 45.238281 -60.828125 43.71875 -62.546875 C 42.207031 -64.273438 39.882812 -65.140625 36.75 -65.140625 C 34.113281 -65.140625 32.007812 -64.503906 30.4375 -63.234375 C 28.875 -61.972656 28.09375 -60.226562 28.09375 -58 C 28.09375 -54.050781 31.378906 -51.46875 37.953125 -50.25 L 47.375 -48.125 C 53.75 -46.707031 59.132812 -44.125 63.53125 -40.375 C 67.9375 -36.632812 70.140625 -31.320312 70.140625 -24.4375 C 70.140625 -19.175781 68.75 -14.597656 65.96875 -10.703125 C 63.1875 -6.804688 59.363281 -3.820312 54.5 -1.75 C 49.644531 0.320312 44.234375 1.359375 38.265625 1.359375 Z M 38.265625 1.359375 "/></g></g></g><g fill="rgb(100%, 100%, 100%)" fill-opacity="1"><g transform="translate(1041.67391, 225.642129)"><g><path d="M 44.1875 1.359375 C 35.675781 1.359375 28.507812 -0.585938 22.6875 -4.484375 C 16.875 -8.378906 12.578125 -13.488281 9.796875 -19.8125 C 7.015625 -26.132812 5.625 -32.941406 5.625 -40.234375 C 5.625 -47.523438 7.015625 -54.332031 9.796875 -60.65625 C 12.578125 -66.976562 16.875 -72.113281 22.6875 -76.0625 C 28.507812 -80.007812 35.773438 -81.984375 44.484375 -81.984375 C 55.816406 -81.984375 64.820312 -78.414062 71.5 -71.28125 C 78.1875 -64.144531 81.53125 -53.796875 81.53125 -40.234375 L 81.53125 -33.703125 L 28.390625 -33.703125 L 28.390625 -32.484375 C 28.390625 -28.335938 29.832031 -24.769531 32.71875 -21.78125 C 35.601562 -18.800781 39.269531 -17.3125 43.71875 -17.3125 C 47.164062 -17.3125 50.101562 -18.09375 52.53125 -19.65625 C 54.957031 -21.226562 56.675781 -23.332031 57.6875 -25.96875 L 80.921875 -25.96875 C 78.898438 -17.96875 74.722656 -11.410156 68.390625 -6.296875 C 62.066406 -1.191406 54 1.359375 44.1875 1.359375 Z M 58.90625 -48.890625 C 58.800781 -54.359375 57.40625 -58.40625 54.71875 -61.03125 C 52.039062 -63.664062 48.476562 -64.984375 44.03125 -64.984375 C 39.476562 -64.984375 35.859375 -63.566406 33.171875 -60.734375 C 30.492188 -57.898438 29.101562 -53.953125 29 -48.890625 Z M 58.90625 -48.890625 "/></g></g></g><g fill="rgb(9.408569%, 25.099182%, 48.629761%)" fill-opacity="1"><g transform="translate(1136.856639, 225.642129)"><g><path d="M 25.5 1.359375 C 21.757812 1.359375 18.675781 0.0976562 16.25 -2.421875 C 13.820312 -4.953125 12.609375 -8.039062 12.609375 -11.6875 C 12.609375 -15.332031 13.820312 -18.394531 16.25 -20.875 C 18.675781 -23.351562 21.757812 -24.59375 25.5 -24.59375 C 29.25 -24.59375 32.363281 -23.351562 34.84375 -20.875 C 37.320312 -18.394531 38.5625 -15.332031 38.5625 -11.6875 C 38.5625 -8.039062 37.296875 -4.953125 34.765625 -2.421875 C 32.234375 0.0976562 29.144531 1.359375 25.5 1.359375 Z M 25.5 1.359375 "/></g></g></g><g fill="rgb(9.408569%, 25.099182%, 48.629761%)" fill-opacity="1"><g transform="translate(283.933732, 339.412865)"><g><path d="M 10.429688 -24.164062 L 10.429688 -44.085938 L 21.792969 -44.085938 C 24.738281 -44.085938 27.113281 -43.152344 28.910156 -41.28125 C 30.636719 -39.410156 31.574219 -37.109375 31.574219 -34.234375 C 31.574219 -31.355469 30.636719 -28.984375 28.765625 -27.042969 C 26.898438 -25.101562 24.597656 -24.164062 21.792969 -24.164062 Z M 36.605469 -34.160156 C 36.605469 -38.332031 35.023438 -41.929688 32.003906 -44.734375 C 29.054688 -47.464844 25.386719 -48.90625 21.070312 -48.90625 L 5.394531 -48.90625 L 5.394531 0 L 10.429688 0 L 10.429688 -19.347656 L 16.253906 -19.347656 L 30.636719 0 L 37.398438 0 L 22.292969 -19.347656 C 26.105469 -19.5625 29.34375 -20.929688 32.003906 -23.445312 C 35.023438 -26.25 36.605469 -29.847656 36.605469 -34.160156 Z M 36.605469 -34.160156 "/></g></g></g><g fill="rgb(9.408569%, 25.099182%, 48.629761%)" fill-opacity="1"><g transform="translate(323.05751, 339.412865)"><g><path d="M 36.320312 -16.542969 C 36.320312 -20.855469 34.59375 -24.597656 31.285156 -27.832031 C 28.046875 -30.925781 24.164062 -32.507812 19.777344 -32.507812 C 15.175781 -32.507812 11.292969 -30.851562 8.054688 -27.617188 C 4.820312 -24.378906 3.238281 -20.496094 3.238281 -15.964844 C 3.238281 -11.363281 4.820312 -7.480469 8.054688 -4.316406 C 9.566406 -2.804688 11.292969 -1.652344 13.304688 -0.792969 C 15.320312 0.0703125 17.691406 0.503906 20.496094 0.503906 C 23.300781 0.503906 26.035156 -0.359375 28.765625 -2.085938 C 31.5 -3.8125 33.515625 -6.257812 34.878906 -9.277344 L 29.128906 -9.277344 C 27.976562 -7.765625 26.609375 -6.617188 24.957031 -5.753906 C 23.300781 -4.890625 21.574219 -4.53125 19.777344 -4.53125 C 17.042969 -4.53125 14.597656 -5.394531 12.441406 -7.191406 C 10.285156 -8.917969 8.917969 -11.148438 8.488281 -13.878906 L 36.320312 -13.878906 Z M 30.996094 -18.195312 L 8.558594 -18.195312 C 8.847656 -19.488281 9.347656 -20.710938 10.070312 -21.863281 C 12.371094 -25.601562 15.605469 -27.472656 19.777344 -27.472656 C 22.4375 -27.472656 24.8125 -26.609375 26.898438 -24.882812 C 29.054688 -23.085938 30.351562 -20.855469 30.996094 -18.195312 Z M 30.996094 -18.195312 "/></g></g></g><g fill="rgb(9.408569%, 25.099182%, 48.629761%)" fill-opacity="1"><g transform="translate(362.253201, 339.412865)"><g><path d="M 27.257812 0 L 32.292969 0 L 32.292969 -19.777344 C 32.292969 -23.445312 31.285156 -26.394531 29.414062 -28.625 C 28.40625 -29.773438 27.257812 -30.636719 25.890625 -31.285156 C 24.453125 -31.933594 22.65625 -32.292969 20.425781 -32.292969 C 18.125 -32.292969 16.183594 -31.644531 14.457031 -30.492188 C 12.800781 -29.414062 11.433594 -27.976562 10.429688 -26.179688 L 10.429688 -31.644531 L 5.394531 -31.644531 L 5.394531 0 L 10.429688 0 L 10.429688 -13.234375 C 10.429688 -17.261719 11.148438 -20.425781 12.65625 -22.796875 C 13.519531 -24.09375 14.597656 -25.171875 15.964844 -26.035156 C 17.261719 -26.824219 19.058594 -27.257812 21.214844 -27.257812 C 23.375 -27.257812 24.882812 -26.464844 25.820312 -25.027344 C 26.753906 -23.589844 27.257812 -21.792969 27.257812 -19.777344 Z M 27.257812 0 "/></g></g></g><g fill="rgb(9.408569%, 25.099182%, 48.629761%)" fill-opacity="1"><g transform="translate(398.859822, 339.412865)"><g><path d="M 1.4375 -26.96875 L 9.347656 -26.96875 L 9.347656 0 L 14.382812 0 L 14.382812 -26.96875 L 22.222656 -26.96875 L 22.222656 -31.644531 L 14.382812 -31.644531 L 14.382812 -43.941406 L 9.347656 -43.941406 L 9.347656 -31.644531 L 1.4375 -31.644531 Z M 1.4375 -26.96875 "/></g></g></g><g fill="rgb(9.408569%, 25.099182%, 48.629761%)" fill-opacity="1"><g transform="translate(422.521073, 339.412865)"><g><path d="M 10.5 -42.574219 C 9.851562 -43.152344 9.0625 -43.511719 8.199219 -43.511719 C 7.335938 -43.511719 6.542969 -43.152344 5.96875 -42.574219 C 5.320312 -41.929688 5.035156 -41.136719 5.035156 -40.273438 C 5.035156 -39.410156 5.320312 -38.621094 5.96875 -38.046875 C 6.542969 -37.398438 7.335938 -37.109375 8.199219 -37.109375 C 9.0625 -37.109375 9.851562 -37.398438 10.5 -38.046875 C 11.074219 -38.621094 11.433594 -39.410156 11.433594 -40.273438 C 11.433594 -41.136719 11.074219 -41.929688 10.5 -42.574219 Z M 10.789062 0 L 10.789062 -31.644531 L 5.753906 -31.644531 L 5.753906 0 Z M 10.789062 0 "/></g></g></g><g fill="rgb(9.408569%, 25.099182%, 48.629761%)" fill-opacity="1"><g transform="translate(438.990457, 339.412865)"><g><path d="M 27.257812 0 L 32.292969 0 L 32.292969 -19.777344 C 32.292969 -23.445312 31.285156 -26.394531 29.414062 -28.625 C 28.40625 -29.773438 27.257812 -30.636719 25.890625 -31.285156 C 24.453125 -31.933594 22.65625 -32.292969 20.425781 -32.292969 C 18.125 -32.292969 16.183594 -31.644531 14.457031 -30.492188 C 12.800781 -29.414062 11.433594 -27.976562 10.429688 -26.179688 L 10.429688 -31.644531 L 5.394531 -31.644531 L 5.394531 0 L 10.429688 0 L 10.429688 -13.234375 C 10.429688 -17.261719 11.148438 -20.425781 12.65625 -22.796875 C 13.519531 -24.09375 14.597656 -25.171875 15.964844 -26.035156 C 17.261719 -26.824219 19.058594 -27.257812 21.214844 -27.257812 C 23.375 -27.257812 24.882812 -26.464844 25.820312 -25.027344 C 26.753906 -23.589844 27.257812 -21.792969 27.257812 -19.777344 Z M 27.257812 0 "/></g></g></g><g fill="rgb(9.408569%, 25.099182%, 48.629761%)" fill-opacity="1"><g transform="translate(475.597079, 339.412865)"><g><path d="M 30.996094 -15.820312 C 30.996094 -12.730469 29.917969 -9.996094 27.761719 -7.765625 C 25.601562 -5.464844 22.941406 -4.316406 19.847656 -4.316406 C 16.757812 -4.316406 14.097656 -5.464844 11.9375 -7.765625 C 9.78125 -9.996094 8.703125 -12.65625 8.703125 -15.820312 C 8.703125 -18.914062 9.78125 -21.574219 11.9375 -23.878906 C 14.097656 -26.179688 16.757812 -27.328125 19.847656 -27.328125 C 22.941406 -27.328125 25.601562 -26.179688 27.761719 -23.878906 C 29.917969 -21.574219 30.996094 -18.84375 30.996094 -15.820312 Z M 8.558594 4.316406 L 3.378906 4.316406 C 3.957031 7.695312 5.464844 10.644531 8.054688 13.160156 C 11.21875 16.398438 15.101562 17.980469 19.632812 17.980469 C 24.09375 17.980469 27.976562 16.398438 31.210938 13.160156 C 34.378906 9.996094 36.03125 6.113281 36.03125 1.582031 L 36.03125 -31.644531 L 30.996094 -31.644531 L 30.996094 -26.320312 C 30.710938 -26.609375 30.421875 -26.96875 30.132812 -27.328125 C 26.96875 -30.636719 23.300781 -32.363281 19.128906 -32.363281 C 14.671875 -32.363281 11.003906 -30.636719 7.984375 -27.328125 C 5.105469 -24.019531 3.667969 -20.210938 3.667969 -15.820312 C 3.667969 -11.363281 5.105469 -7.550781 7.984375 -4.316406 C 11.003906 -0.933594 14.671875 0.71875 19.128906 0.71875 C 23.445312 0.71875 27.113281 -0.933594 30.132812 -4.316406 C 30.421875 -4.601562 30.710938 -4.960938 30.996094 -5.25 L 30.996094 1.582031 C 30.996094 4.746094 29.847656 7.40625 27.617188 9.636719 C 25.386719 11.867188 22.726562 12.945312 19.632812 12.945312 C 16.46875 12.945312 13.808594 11.867188 11.578125 9.636719 C 9.996094 8.054688 8.988281 6.328125 8.558594 4.316406 Z M 8.558594 4.316406 "/></g></g></g><g fill="rgb(9.408569%, 25.099182%, 48.629761%)" fill-opacity="1"><g transform="translate(517.022237, 339.412865)"><g/></g></g><g fill="rgb(9.408569%, 25.099182%, 48.629761%)" fill-opacity="1"><g transform="translate(536.440281, 339.412865)"><g><path d="M 45.523438 -0.144531 L 50.558594 -0.144531 L 50.558594 -19.921875 C 50.558594 -23.445312 49.625 -26.394531 47.898438 -28.695312 C 47.035156 -29.847656 45.882812 -30.710938 44.589844 -31.429688 C 43.222656 -32.148438 41.425781 -32.507812 39.269531 -32.507812 C 37.039062 -32.507812 35.097656 -31.859375 33.441406 -30.710938 C 31.933594 -29.558594 30.710938 -28.191406 29.703125 -26.464844 C 29.34375 -27.257812 28.910156 -27.976562 28.40625 -28.695312 C 27.542969 -29.847656 26.394531 -30.710938 25.101562 -31.429688 C 23.734375 -32.148438 21.933594 -32.507812 19.777344 -32.507812 C 17.546875 -32.507812 15.605469 -31.859375 13.953125 -30.710938 C 12.515625 -29.628906 11.363281 -28.335938 10.429688 -26.683594 L 10.429688 -31.789062 L 5.394531 -31.789062 L 5.394531 -0.144531 L 10.429688 -0.144531 L 10.429688 -16.324219 C 10.644531 -18.84375 11.292969 -21.070312 12.371094 -22.871094 C 13.089844 -24.164062 14.167969 -25.316406 15.460938 -26.179688 C 16.757812 -27.042969 18.125 -27.472656 19.632812 -27.472656 C 21.070312 -27.472656 22.222656 -27.183594 22.941406 -26.753906 C 24.957031 -25.460938 26.035156 -23.15625 26.035156 -19.921875 L 26.035156 -0.144531 L 31.070312 -0.144531 L 31.070312 -19.921875 C 31.070312 -20.28125 30.996094 -20.710938 30.996094 -21.070312 C 31.210938 -21.71875 31.5 -22.292969 31.859375 -22.871094 C 32.578125 -24.164062 33.65625 -25.316406 34.953125 -26.179688 C 36.246094 -27.042969 37.613281 -27.472656 39.125 -27.472656 C 40.5625 -27.472656 41.710938 -27.183594 42.433594 -26.753906 C 44.445312 -25.460938 45.523438 -23.15625 45.523438 -19.921875 Z M 45.523438 -0.144531 "/></g></g></g><g fill="rgb(9.408569%, 25.099182%, 48.629761%)" fill-opacity="1"><g transform="translate(591.314262, 339.412865)"><g><path d="M 30.566406 -15.820312 C 30.566406 -12.730469 29.488281 -9.996094 27.328125 -7.765625 C 25.171875 -5.464844 22.511719 -4.316406 19.417969 -4.316406 C 16.253906 -4.316406 13.59375 -5.464844 11.433594 -7.765625 C 9.277344 -9.996094 8.269531 -12.730469 8.269531 -15.820312 C 8.269531 -18.84375 9.277344 -21.574219 11.433594 -23.878906 C 13.59375 -26.179688 16.253906 -27.328125 19.417969 -27.328125 C 22.511719 -27.328125 25.171875 -26.179688 27.328125 -23.878906 C 29.488281 -21.574219 30.566406 -18.84375 30.566406 -15.820312 Z M 35.601562 0 L 35.601562 -31.644531 L 30.566406 -31.644531 L 30.566406 -26.179688 C 30.277344 -26.609375 29.917969 -26.96875 29.628906 -27.328125 C 26.609375 -30.636719 22.941406 -32.363281 18.625 -32.363281 C 14.238281 -32.363281 10.570312 -30.636719 7.550781 -27.328125 C 4.675781 -24.019531 3.238281 -20.210938 3.238281 -15.820312 C 3.238281 -11.363281 4.675781 -7.550781 7.550781 -4.316406 C 10.570312 -0.933594 14.238281 0.71875 18.625 0.71875 C 22.941406 0.71875 26.609375 -0.933594 29.628906 -4.316406 C 29.917969 -4.601562 30.277344 -4.960938 30.566406 -5.394531 L 30.566406 0 Z M 35.601562 0 "/></g></g></g><g fill="rgb(9.408569%, 25.099182%, 48.629761%)" fill-opacity="1"><g transform="translate(632.307917, 339.412865)"><g><path d="M 30.566406 -15.820312 C 30.566406 -12.730469 29.488281 -9.996094 27.328125 -7.765625 C 25.171875 -5.464844 22.511719 -4.316406 19.417969 -4.316406 C 16.253906 -4.316406 13.59375 -5.464844 11.433594 -7.765625 C 9.277344 -9.996094 8.269531 -12.730469 8.269531 -15.820312 C 8.269531 -18.84375 9.277344 -21.574219 11.433594 -23.878906 C 13.59375 -26.179688 16.253906 -27.328125 19.417969 -27.328125 C 22.511719 -27.328125 25.171875 -26.179688 27.328125 -23.878906 C 29.488281 -21.574219 30.566406 -18.84375 30.566406 -15.820312 Z M 35.601562 0 L 35.601562 -53.9375 L 30.566406 -53.9375 L 30.566406 -26.179688 C 30.277344 -26.609375 29.917969 -26.96875 29.628906 -27.328125 C 26.609375 -30.636719 22.941406 -32.363281 18.625 -32.363281 C 14.238281 -32.363281 10.570312 -30.636719 7.550781 -27.328125 C 4.675781 -24.019531 3.238281 -20.210938 3.238281 -15.820312 C 3.238281 -11.363281 4.675781 -7.550781 7.550781 -4.316406 C 10.570312 -0.933594 14.238281 0.71875 18.625 0.71875 C 22.941406 0.71875 26.609375 -0.933594 29.628906 -4.316406 C 29.917969 -4.601562 30.277344 -4.960938 30.566406 -5.394531 L 30.566406 0 Z M 35.601562 0 "/></g></g></g><g fill="rgb(9.408569%, 25.099182%, 48.629761%)" fill-opacity="1"><g transform="translate(673.301572, 339.412865)"><g><path d="M 36.320312 -16.542969 C 36.320312 -20.855469 34.59375 -24.597656 31.285156 -27.832031 C 28.046875 -30.925781 24.164062 -32.507812 19.777344 -32.507812 C 15.175781 -32.507812 11.292969 -30.851562 8.054688 -27.617188 C 4.820312 -24.378906 3.238281 -20.496094 3.238281 -15.964844 C 3.238281 -11.363281 4.820312 -7.480469 8.054688 -4.316406 C 9.566406 -2.804688 11.292969 -1.652344 13.304688 -0.792969 C 15.320312 0.0703125 17.691406 0.503906 20.496094 0.503906 C 23.300781 0.503906 26.035156 -0.359375 28.765625 -2.085938 C 31.5 -3.8125 33.515625 -6.257812 34.878906 -9.277344 L 29.128906 -9.277344 C 27.976562 -7.765625 26.609375 -6.617188 24.957031 -5.753906 C 23.300781 -4.890625 21.574219 -4.53125 19.777344 -4.53125 C 17.042969 -4.53125 14.597656 -5.394531 12.441406 -7.191406 C 10.285156 -8.917969 8.917969 -11.148438 8.488281 -13.878906 L 36.320312 -13.878906 Z M 30.996094 -18.195312 L 8.558594 -18.195312 C 8.847656 -19.488281 9.347656 -20.710938 10.070312 -21.863281 C 12.371094 -25.601562 15.605469 -27.472656 19.777344 -27.472656 C 22.4375 -27.472656 24.8125 -26.609375 26.898438 -24.882812 C 29.054688 -23.085938 30.351562 -20.855469 30.996094 -18.195312 Z M 30.996094 -18.195312 "/></g></g></g><g fill="rgb(9.408569%, 25.099182%, 48.629761%)" fill-opacity="1"><g transform="translate(712.49724, 339.412865)"><g/></g></g><g fill="rgb(9.408569%, 25.099182%, 48.629761%)" fill-opacity="1"><g transform="translate(731.915284, 339.412865)"><g><path d="M 36.320312 -16.542969 C 36.320312 -20.855469 34.59375 -24.597656 31.285156 -27.832031 C 28.046875 -30.925781 24.164062 -32.507812 19.777344 -32.507812 C 15.175781 -32.507812 11.292969 -30.851562 8.054688 -27.617188 C 4.820312 -24.378906 3.238281 -20.496094 3.238281 -15.964844 C 3.238281 -11.363281 4.820312 -7.480469 8.054688 -4.316406 C 9.566406 -2.804688 11.292969 -1.652344 13.304688 -0.792969 C 15.320312 0.0703125 17.691406 0.503906 20.496094 0.503906 C 23.300781 0.503906 26.035156 -0.359375 28.765625 -2.085938 C 31.5 -3.8125 33.515625 -6.257812 34.878906 -9.277344 L 29.128906 -9.277344 C 27.976562 -7.765625 26.609375 -6.617188 24.957031 -5.753906 C 23.300781 -4.890625 21.574219 -4.53125 19.777344 -4.53125 C 17.042969 -4.53125 14.597656 -5.394531 12.441406 -7.191406 C 10.285156 -8.917969 8.917969 -11.148438 8.488281 -13.878906 L 36.320312 -13.878906 Z M 30.996094 -18.195312 L 8.558594 -18.195312 C 8.847656 -19.488281 9.347656 -20.710938 10.070312 -21.863281 C 12.371094 -25.601562 15.605469 -27.472656 19.777344 -27.472656 C 22.4375 -27.472656 24.8125 -26.609375 26.898438 -24.882812 C 29.054688 -23.085938 30.351562 -20.855469 30.996094 -18.195312 Z M 30.996094 -18.195312 "/></g></g></g><g fill="rgb(9.408569%, 25.099182%, 48.629761%)" fill-opacity="1"><g transform="translate(771.110998, 339.412865)"><g><path d="M 30.566406 -15.820312 C 30.566406 -12.730469 29.488281 -9.996094 27.328125 -7.765625 C 25.171875 -5.464844 22.511719 -4.316406 19.417969 -4.316406 C 16.253906 -4.316406 13.59375 -5.464844 11.433594 -7.765625 C 9.277344 -9.996094 8.269531 -12.730469 8.269531 -15.820312 C 8.269531 -18.84375 9.277344 -21.574219 11.433594 -23.878906 C 13.59375 -26.179688 16.253906 -27.328125 19.417969 -27.328125 C 22.511719 -27.328125 25.171875 -26.179688 27.328125 -23.878906 C 29.488281 -21.574219 30.566406 -18.84375 30.566406 -15.820312 Z M 35.601562 0 L 35.601562 -31.644531 L 30.566406 -31.644531 L 30.566406 -26.179688 C 30.277344 -26.609375 29.917969 -26.96875 29.628906 -27.328125 C 26.609375 -30.636719 22.941406 -32.363281 18.625 -32.363281 C 14.238281 -32.363281 10.570312 -30.636719 7.550781 -27.328125 C 4.675781 -24.019531 3.238281 -20.210938 3.238281 -15.820312 C 3.238281 -11.363281 4.675781 -7.550781 7.550781 -4.316406 C 10.570312 -0.933594 14.238281 0.71875 18.625 0.71875 C 22.941406 0.71875 26.609375 -0.933594 29.628906 -4.316406 C 29.917969 -4.601562 30.277344 -4.960938 30.566406 -5.394531 L 30.566406 0 Z M 35.601562 0 "/></g></g></g><g fill="rgb(9.408569%, 25.099182%, 48.629761%)" fill-opacity="1"><g transform="translate(812.104653, 339.412865)"><g><path d="M 9.925781 -4.457031 C 8.703125 -5.320312 7.765625 -6.761719 7.265625 -8.847656 L 1.941406 -8.847656 C 3.019531 -2.300781 7.191406 0.933594 14.527344 0.933594 C 16.253906 0.933594 17.835938 0.792969 19.347656 0.359375 C 20.855469 -0.0703125 22.152344 -0.648438 23.375 -1.4375 C 25.820312 -3.09375 27.042969 -5.609375 27.042969 -8.988281 C 27.042969 -12.441406 25.460938 -14.886719 22.152344 -16.46875 C 20.785156 -17.117188 19.273438 -17.621094 17.621094 -17.980469 C 16.039062 -18.339844 14.527344 -18.769531 13.160156 -19.203125 C 11.722656 -19.632812 10.570312 -20.210938 9.636719 -20.855469 C 8.703125 -21.503906 8.199219 -22.511719 8.199219 -23.949219 C 8.199219 -25.386719 8.773438 -26.464844 9.925781 -27.113281 C 11.074219 -27.832031 12.441406 -28.191406 13.953125 -28.191406 C 15.535156 -28.191406 16.902344 -27.832031 17.980469 -27.257812 C 19.058594 -26.683594 19.921875 -25.53125 20.425781 -23.804688 L 25.820312 -23.804688 C 25.171875 -26.96875 23.804688 -29.199219 21.792969 -30.421875 C 19.707031 -31.714844 17.1875 -32.363281 14.097656 -32.363281 C 11.074219 -32.363281 8.414062 -31.5 6.183594 -29.917969 C 4.027344 -28.265625 2.875 -25.890625 2.875 -22.726562 C 2.875 -21.214844 3.308594 -19.847656 4.097656 -18.699219 C 4.960938 -17.476562 6.183594 -16.542969 7.765625 -15.820312 C 9.207031 -15.175781 10.714844 -14.671875 12.296875 -14.238281 C 13.878906 -13.878906 15.390625 -13.449219 16.828125 -13.015625 C 20.066406 -11.9375 21.71875 -10.355469 21.71875 -8.34375 C 21.71875 -4.890625 19.417969 -3.238281 14.816406 -3.238281 C 12.875 -3.238281 11.21875 -3.597656 9.925781 -4.457031 Z M 9.925781 -4.457031 "/></g></g></g><g fill="rgb(9.408569%, 25.099182%, 48.629761%)" fill-opacity="1"><g transform="translate(841.015967, 339.412865)"><g><path d="M 9.421875 17.980469 L 31.285156 -31.644531 L 25.675781 -31.644531 L 16.613281 -10.429688 L 6.472656 -31.644531 L 0.71875 -31.644531 L 13.953125 -5.179688 L 3.308594 17.980469 Z M 9.421875 17.980469 "/></g></g></g></svg>